<svg width="445" height="420" fill="none" xmlns="http://www.w3.org/2000/svg"><g clip-path="url(#a)"><path d="M173.67 104.25C131.902 90.122 94.986 85.047 69.587 89.867c-12.693 2.408-22.032 7.196-27.822 13.978-5.779 6.767-8.083 15.588-6.577 26.202 3.02 21.29 21.156 48.259 51.302 76.006 30.121 27.724 70.15 54.309 112.834 74.928 42.687 20.62 85.171 33.894 119.749 37.436 17.29 1.77 32.003 1.046 43.604-2.002 11.601-3.048 20.044-8.408 24.878-15.877 4.829-7.463 5.952-16.872 3.401-27.774-2.553-10.908-8.778-23.276-18.594-36.586-19.631-26.619-52.243-55.135-91.948-80.363m-134.319-40.067c-23.308-1.744-41.501 2.015-51.976 10.564-5.223 4.262-8.395 9.605-9.498 15.798-1.106 6.202-.143 13.298 2.981 21.059 6.254 15.534 20.787 32.789 41.496 49.164 20.699 16.367 46.411 30.939 73.292 41.534 26.883 10.595 53.465 16.633 75.771 17.227 22.334.595 39.049-4.301 47.814-13.775 8.711-9.416 9.248-23.032 1.232-38.982-8.02-15.956-24.125-33.262-45.958-49.313l-135.154-53.276Z" stroke="#fff" stroke-opacity=".1"/><path d="M171.594 329.617c119.596 54.391 239.338 38.66 267.453-35.134 28.114-73.795-46.046-177.71-165.641-232.1C153.81 7.993 34.068 23.723 5.953 97.517-22.16 171.313 52 275.228 171.594 329.618Z" fill="url(#b)"/><g filter="url(#c)"><path d="M91.59 224.339c32.103 68.258 113.461 97.568 181.719 65.465 68.258-32.102 97.568-113.46 65.465-181.718-32.102-68.258-113.461-97.568-181.719-65.466C88.797 74.723 59.488 156.081 91.59 224.34Z" fill="url(#d)"/></g></g><defs><radialGradient id="b" cx="0" cy="0" r="1" gradientUnits="userSpaceOnUse" gradientTransform="matrix(-216.67281 -98.53804 59.11032 -129.9762 222.596 196.135)"><stop offset="0" stop-color="#CD22F8"/><stop offset=".54" stop-color="#C809F9" stop-opacity=".3"/><stop offset="1" stop-color="#420053" stop-opacity="0"/></radialGradient><radialGradient id="d" cx="0" cy="0" r="1" gradientUnits="userSpaceOnUse" gradientTransform="rotate(64.812 -23.335 252.606) scale(136.579)"><stop offset=".224" stop-color="#A5FBFF"/><stop offset=".339" stop-color="#A4DEFF"/><stop offset=".599" stop-color="#CF36D2" stop-opacity=".6"/><stop offset="1" stop-color="#0113AB" stop-opacity="0"/></radialGradient><clipPath id="a"><path fill="#fff" d="M0 0h445v420H0z"/></clipPath><filter id="c" x="49.571" y=".602" width="331.222" height="331.222" filterUnits="userSpaceOnUse" color-interpolation-filters="sRGB"><feFlood flood-opacity="0" result="BackgroundImageFix"/><feBlend in="SourceGraphic" in2="BackgroundImageFix" result="shape"/><feGaussianBlur stdDeviation="14.5" result="effect1_foregroundBlur_10_577"/></filter></defs></svg>