<svg width="24" height="24" fill="none" xmlns="http://www.w3.org/2000/svg"><g clip-path="url(#a)"><path fill-rule="evenodd" clip-rule="evenodd" d="M23 0H1a1 1 0 0 0-1 1v22a1 1 0 0 0 1 1h22a1 1 0 0 0 1-1V1a1 1 0 0 0-1-1Zm-3.06 5.7-1.29 1.23a.38.38 0 0 0-.14.36v9.07a.38.38 0 0 0 .14.36l1.26 1.23v.28h-6.32v-.27l1.3-1.27c.12-.13.12-.16.12-.36V8.99l-3.62 9.2h-.49L6.7 9v6.16a.85.85 0 0 0 .22.71l1.7 2.05v.28h-4.8v-.28l1.69-2.05a.82.82 0 0 0 .22-.7V8.02a.63.63 0 0 0-.2-.53L4.02 5.7v-.27h4.67l3.62 7.92 3.17-7.92h4.46v.27Z" fill="#BBB"/></g><defs><clipPath id="a"><path fill="#fff" d="M0 0h24v24H0z"/></clipPath></defs></svg>