<svg width="24" height="25" fill="none" xmlns="http://www.w3.org/2000/svg"><path fill-rule="evenodd" clip-rule="evenodd" d="M12.36 8.47v-3.6l3.12-1.8 3.12 1.8v3.6l-3.12 1.8-3.12-1.8Zm-.36.54-3.12 1.8v3.6l3.12 1.8 3.12-1.8v-3.6L12 9.01Zm0 1.25 2.04 1.18v2.35L12 14.97l-2.04-1.18v-2.35L12 10.26Zm3.84 4.15 3.12 1.8 3.12-1.8v-3.6l-3.12-1.8-3.12 1.8v3.6Zm3.12.56-2.04-1.18v-2.35l2.04-1.18L21 11.44v2.35l-2.04 1.18Zm-7.32 5.5v-3.6l-3.12-1.8-3.12 1.8v3.6l3.12 1.8 3.12-1.8Zm-3.12.56 2.04-1.18V17.5l-2.04-1.18-2.04 1.18v2.35l2.04 1.18Zm-.36-6.62v-3.6l-3.12-1.8-3.12 1.8v3.6l3.12 1.8 3.12-1.8Zm-1.08-2.97v2.35l-2.04 1.18L3 13.79v-2.35l2.04-1.18 2.03 1.18Zm1.44-1.17 3.12-1.8v-3.6l-3.12-1.8-3.12 1.8v3.6l3.12 1.8Zm2.04-2.42L8.52 9.03 6.48 7.85V5.5l2.04-1.18 2.04 1.18v2.35Zm1.8 12.62 3.12 1.8 3.12-1.8v-3.6l-3.12-1.8-3.12 1.8v3.6Zm1.08-.62V17.5l2.04-1.18 2.04 1.18v2.35l-2.04 1.18-2.04-1.18Zm4.08-12-2.04 1.18-2.04-1.18V5.5l2.04-1.18L17.5 5.5v2.35Z" fill="#fff"/></svg>